<svg xmlns="http://www.w3.org/2000/svg" width="36.104" height="36.104" viewBox="0 0 36.104 36.104"><defs><style>.a,.b{fill:none;}.b{stroke:#4d546d;stroke-linecap:round;stroke-linejoin:round;stroke-width:2px;}</style></defs><path class="a" d="M0,0H36.1V36.1H0Z"/><path class="b" d="M16.988,4.542a5.265,5.265,0,1,1-7.446,0,5.265,5.265,0,0,1,7.446,0" transform="translate(4.035 1.513)"/><path class="b" d="M17.072,11.974a.069.069,0,1,1-.1,0,.069.069,0,0,1,.1,0" transform="translate(8.551 6.029)"/><path class="b" d="M20.518,7.292A4.723,4.723,0,0,0,21.9,6.707,4.419,4.419,0,0,1,24.309,6h1.5V9.842a9,9,0,0,1,2.446,3.582h1.315a1.5,1.5,0,0,1,1.5,1.5v4.611a1.5,1.5,0,0,1-1.5,1.5H27.6a9.079,9.079,0,0,1-3.293,3.3v2.721a1.5,1.5,0,0,1-1.5,1.5H19.8a1.5,1.5,0,0,1-1.5-1.5v-1.5H13.026v1.306a1.5,1.5,0,0,1-1.5,1.5H8.513a1.5,1.5,0,0,1-1.5-1.5V23.244A9.01,9.01,0,0,1,10.165,7.975" transform="translate(2.017 3.026)"/><path class="b" d="M2.685,10a2.365,2.365,0,0,0,1.187,4.415H5.261" transform="translate(0.757 5.044)"/><path class="b" d="M8.5,10h9.026" transform="translate(4.287 5.044)"/></svg>