<svg xmlns="http://www.w3.org/2000/svg" width="36.104" height="36.104" viewBox="0 0 36.104 36.104"><defs><style>.a,.b{fill:none;}.b{stroke:#4d546d;stroke-linecap:round;stroke-linejoin:round;stroke-width:2px;}</style></defs><path class="a" d="M0,0H36.1V36.1H0Z"/><path class="b" d="M12,12V25.539" transform="translate(6.052 6.052)"/><path class="b" d="M16.017,15.009,13.009,12,10,15.009" transform="translate(5.044 6.052)"/><path class="b" d="M22.557,24.061h3.009a4.513,4.513,0,0,0,4.513-4.513V7.513A4.513,4.513,0,0,0,25.565,3H7.513A4.513,4.513,0,0,0,3,7.513V19.548a4.513,4.513,0,0,0,4.513,4.513h3.009" transform="translate(1.513 1.513)"/><path class="b" d="M3,8H30.078" transform="translate(1.513 4.035)"/></svg>