<svg xmlns="http://www.w3.org/2000/svg" width="36.104" height="36.104" viewBox="0 0 36.104 36.104"><defs><style>.a,.b{fill:none;}.b{stroke:#4d546d;stroke-linecap:round;stroke-linejoin:round;stroke-width:2px;}</style></defs><path class="a" d="M0,0H36.1V36.1H0Z"/><path class="b" d="M12,25.539V12" transform="translate(6.052 6.052)"/><path class="b" d="M10,19l3.009,3.009L16.017,19" transform="translate(5.044 9.583)"/><path class="b" d="M3,8H30.078" transform="translate(1.513 4.035)"/><path class="b" d="M10.522,22.557H7.513A4.513,4.513,0,0,1,3,18.044V7.513A4.513,4.513,0,0,1,7.513,3H25.565a4.513,4.513,0,0,1,4.513,4.513v10.53a4.513,4.513,0,0,1-4.513,4.513H22.557" transform="translate(1.513 1.513)"/></svg>